<svg id="Camada_1" data-name="Camada 1" xmlns="http://www.w3.org/2000/svg" viewBox="0 0 300 300"><defs><style>.cls-1{fill:#2860b3;}.cls-2{fill:#fff;}</style></defs><path class="cls-1" d="M18.5,149.8c0-30.8-.1-61.7,0-92.5.1-28,10.9-38.8,39.2-38.8q92.55,0,185,0c28,0,38.8,10.9,38.8,39.1q0,92.55,0,185c0,28-10.9,38.8-39.1,38.8q-92.55,0-185,0c-28,0-38.7-10.9-38.8-39.1Q18.45,196.1,18.5,149.8Zm131.8,18.4V118.9c6.9,2.4,13,4.8,19.3,6.6,10.6,2.9,25-4,26.4-13.5,1.7-11.6,1.2-22.7-7.2-33-14-17-32.6-19.3-50.7-13.5-23.9,7.6-30.9,15.9-30.2,39.1.8,23.4-.5,46.8.5,70.2.4,9,3.9,18.1,7.2,26.6,6.3,16.2,33.8,18.7,50,15.2,17-3.7,28.7-18.2,28.2-35.3-.1-5.9-2.2-13.9-6.3-17.1-7-5.4-16.2-7.2-25-1C159.3,165.5,155.1,166.3,150.3,168.2Z"/><path class="cls-2" d="M150.3,168.2c4.7-1.9,9-2.7,12.3-5,8.8-6.2,18-4.4,25,1,4.1,3.2,6.1,11.2,6.3,17.1.4,17.1-11.2,31.6-28.2,35.3-16.2,3.5-43.7,1-50-15.2-3.3-8.6-6.8-17.6-7.2-26.6-1-23.4.3-46.8-.5-70.2-.8-23.2,6.3-31.5,30.2-39.1,18.1-5.8,36.7-3.5,50.7,13.5,8.4,10.2,8.9,21.4,7.2,33-1.4,9.5-15.8,16.5-26.4,13.5-6.3-1.7-12.4-4.2-19.3-6.6C150.3,135.3,150.3,151,150.3,168.2Z"/></svg>